<svg width="33" height="33" viewBox="0 0 33 33" fill="none" xmlns="http://www.w3.org/2000/svg">
<path d="M31.625 0H9.625C8.86553 0 8.25 0.615527 8.25 1.375V23.375C8.25 24.1345 8.86553 24.75 9.625 24.75H31.625C32.3845 24.75 33 24.1345 33 23.375V1.375C33 0.615527 32.3845 0 31.625 0ZM22 22H11V11H22V22ZM30.25 22H24.75V11H30.25V22ZM30.25 8.25H11V2.75H30.25V8.25Z" fill="#E40F2D"/>
<path d="M5.5 11V8.25H1.375C0.615527 8.25 0 8.86553 0 9.625V31.625C0 32.3845 0.615527 33 1.375 33H23.375C24.1345 33 24.75 32.3845 24.75 31.625V27.5H22V30.25H2.75V11H5.5Z" fill="#E40F2D"/>
</svg>
