<svg width="27" height="34" viewBox="0 0 27 34" fill="none" xmlns="http://www.w3.org/2000/svg">
<path fill-rule="evenodd" clip-rule="evenodd" d="M6.78384 12.1537L13.418 6.7832L20.0521 12.1537L13.418 17.5242L6.78384 12.1537Z" stroke="#E40F2D" stroke-width="2" stroke-linecap="round" stroke-linejoin="round"/>
<path d="M6.15202 16.2617L13.7339 22.5799L21.3158 16.2617" stroke="#E40F2D" stroke-width="2" stroke-linecap="round" stroke-linejoin="round"/>
<path d="M6.15202 20.6836L13.7339 27.0018L21.3158 20.6836" stroke="#E40F2D" stroke-width="2" stroke-linecap="round" stroke-linejoin="round"/>
<path d="M20.0522 6.78359L24.7909 2.04492" stroke="#E40F2D" stroke-width="2" stroke-linecap="round" stroke-linejoin="round"/>
<path d="M21.9477 1.09766H25.7386V4.88859" stroke="#E40F2D" stroke-width="2" stroke-linecap="round" stroke-linejoin="round"/>
<path d="M6.88135 6.68228L1.98019 2.11187" stroke="#E40F2D" stroke-width="2" stroke-linecap="round" stroke-linejoin="round"/>
<path d="M1.13227 4.98633L0.999973 1.1977L4.7886 1.0654" stroke="#E40F2D" stroke-width="2" stroke-linecap="round" stroke-linejoin="round"/>
<path d="M20.0522 26.3707L24.7909 31.1094" stroke="#E40F2D" stroke-width="2" stroke-linecap="round" stroke-linejoin="round"/>
<path d="M21.9477 32.0566H25.7386V28.2657" stroke="#E40F2D" stroke-width="2" stroke-linecap="round" stroke-linejoin="round"/>
<path d="M6.88135 26.472L1.98019 31.0424" stroke="#E40F2D" stroke-width="2" stroke-linecap="round" stroke-linejoin="round"/>
<path d="M1.13227 28.168L0.999973 31.9566L4.7886 32.0889" stroke="#E40F2D" stroke-width="2" stroke-linecap="round" stroke-linejoin="round"/>
</svg>
