<svg width="37" height="38" viewBox="0 0 37 38" fill="none" xmlns="http://www.w3.org/2000/svg">
<path d="M36.0817 12.6336C36.5897 12.6336 36.9998 12.2295 36.9998 11.7288V7.74924C36.9998 7.24859 36.5897 6.84445 36.0817 6.84445H32.0434C31.5353 6.84445 31.1252 7.24859 31.1252 7.74924V8.83495H18.8454L1.33244 0.0978829C1.00345 -0.066482 0.608641 -0.0212429 0.325579 0.213994C0.0440248 0.447725 -0.0676762 0.826202 0.0409654 1.17305L7.40426 24.6245V32.2108H6.30253C5.7945 32.2108 5.3844 32.615 5.3844 33.1156V37.0952C5.3844 37.5959 5.7945 38 6.30253 38H10.3408C10.8489 38 11.259 37.5959 11.259 37.0952V36.0095H31.1254V37.0952C31.1254 37.5959 31.5355 38 32.0436 38H36.0819C36.5899 38 37 37.5959 37 37.0952V33.1156C37 32.615 36.5899 32.2108 36.0819 32.2108H34.9801V12.6332L36.0817 12.6336ZM32.9617 8.65402H35.1636V10.8239H32.9617V8.65402ZM20.0684 11.4739L11.4915 12.4752C11.1273 12.5174 10.8228 12.7707 10.7187 13.1176L8.27654 21.2814L2.43432 2.675L20.0684 11.4739ZM9.42278 36.1904H7.22084V34.0204H9.42278V36.1904ZM35.1636 36.1904H32.9616V34.0204H35.1636V36.1904ZM33.1437 32.2108H32.0435C31.5355 32.2108 31.1254 32.6149 31.1254 33.1155V34.1997H11.259V33.1155C11.259 32.6149 10.8489 32.2108 10.3408 32.2108H9.24062V24.4615L12.3086 14.2016L23.3029 12.9168C23.7053 12.8701 24.0282 12.5685 24.0985 12.1764C24.1689 11.7844 23.97 11.3923 23.6089 11.2113L22.472 10.6443H31.1252V11.7285C31.1252 12.2292 31.5353 12.6333 32.0433 12.6333H33.1435L33.1437 32.2108Z" fill="#E40F2D"/>
</svg>
